<mxfile host="app.diagrams.net" modified="2023-10-13T18:17:51.628Z" agent="Mozilla/5.0 (Windows NT 10.0; Win64; x64; rv:109.0) Gecko/20100101 Firefox/118.0" etag="q1Hioq6H39Mu10hrOVzc" version="22.0.3" type="device">
  <diagram id="QJjx0-fPxzvcmYibJWj1" name="Page-1">
    <mxGraphModel dx="676" dy="362" grid="1" gridSize="5" guides="1" tooltips="1" connect="1" arrows="1" fold="1" page="1" pageScale="1" pageWidth="827" pageHeight="583" math="1" shadow="0">
      <root>
        <mxCell id="0" />
        <mxCell id="1" parent="0" />
        <mxCell id="N0H3jAODRCFz-ruV89ya-19" value="Patch" style="shape=cube;whiteSpace=wrap;html=1;boundedLbl=1;backgroundOutline=1;darkOpacity=0.05;darkOpacity2=0.1;size=5;direction=east;flipH=1;shadow=1;fontSize=4;fillColor=#647687;fontColor=#ffffff;strokeColor=#314354;" vertex="1" parent="1">
          <mxGeometry x="230" y="40" width="30" height="30" as="geometry" />
        </mxCell>
        <mxCell id="N0H3jAODRCFz-ruV89ya-20" value="Patch" style="shape=cube;whiteSpace=wrap;html=1;boundedLbl=1;backgroundOutline=1;darkOpacity=0.05;darkOpacity2=0.1;size=5;direction=east;flipH=1;shadow=1;fontSize=4;" vertex="1" parent="1">
          <mxGeometry x="220" y="50" width="30" height="30" as="geometry" />
        </mxCell>
        <mxCell id="B-LIaysdKQbxfx360-42-17" value="Image" style="shape=cube;whiteSpace=wrap;html=1;boundedLbl=1;backgroundOutline=1;darkOpacity=0.05;darkOpacity2=0.1;size=5;direction=east;flipH=1;shadow=1;" parent="1" vertex="1">
          <mxGeometry x="10" y="50" width="60" height="60" as="geometry" />
        </mxCell>
        <mxCell id="N0H3jAODRCFz-ruV89ya-1" value="Patch" style="shape=cube;whiteSpace=wrap;html=1;boundedLbl=1;backgroundOutline=1;darkOpacity=0.05;darkOpacity2=0.1;size=5;direction=east;flipH=1;shadow=1;fontSize=4;" vertex="1" parent="1">
          <mxGeometry x="80" y="85" width="30" height="30" as="geometry" />
        </mxCell>
        <mxCell id="N0H3jAODRCFz-ruV89ya-2" value="Patch" style="shape=cube;whiteSpace=wrap;html=1;boundedLbl=1;backgroundOutline=1;darkOpacity=0.05;darkOpacity2=0.1;size=5;direction=east;flipH=1;shadow=1;fontSize=4;fillColor=#647687;fontColor=#ffffff;strokeColor=#314354;" vertex="1" parent="1">
          <mxGeometry x="120" y="85" width="30" height="30" as="geometry" />
        </mxCell>
        <mxCell id="N0H3jAODRCFz-ruV89ya-4" value="Patch" style="shape=cube;whiteSpace=wrap;html=1;boundedLbl=1;backgroundOutline=1;darkOpacity=0.05;darkOpacity2=0.1;size=5;direction=east;flipH=1;shadow=1;fontSize=4;fillColor=#f5f5f5;gradientColor=#b3b3b3;strokeColor=#666666;" vertex="1" parent="1">
          <mxGeometry x="80" y="50" width="30" height="30" as="geometry" />
        </mxCell>
        <mxCell id="N0H3jAODRCFz-ruV89ya-6" value="Patch" style="shape=cube;whiteSpace=wrap;html=1;boundedLbl=1;backgroundOutline=1;darkOpacity=0.05;darkOpacity2=0.1;size=5;direction=east;flipH=1;shadow=1;fontSize=4;" vertex="1" parent="1">
          <mxGeometry x="120" y="50" width="30" height="30" as="geometry" />
        </mxCell>
        <mxCell id="N0H3jAODRCFz-ruV89ya-21" value="" style="endArrow=none;dashed=1;html=1;rounded=0;exitX=0;exitY=0;exitDx=0;exitDy=0;exitPerimeter=0;entryX=1;entryY=1;entryDx=0;entryDy=0;entryPerimeter=0;" edge="1" parent="1" source="N0H3jAODRCFz-ruV89ya-15" target="N0H3jAODRCFz-ruV89ya-19">
          <mxGeometry width="50" height="50" relative="1" as="geometry">
            <mxPoint x="180" y="110" as="sourcePoint" />
            <mxPoint x="230" y="60" as="targetPoint" />
          </mxGeometry>
        </mxCell>
        <mxCell id="N0H3jAODRCFz-ruV89ya-14" value="Patch" style="shape=cube;whiteSpace=wrap;html=1;boundedLbl=1;backgroundOutline=1;darkOpacity=0.05;darkOpacity2=0.1;size=5;direction=east;flipH=1;shadow=1;fontSize=4;" vertex="1" parent="1">
          <mxGeometry x="170" y="100" width="30" height="30" as="geometry" />
        </mxCell>
        <mxCell id="N0H3jAODRCFz-ruV89ya-15" value="Patch" style="shape=cube;whiteSpace=wrap;html=1;boundedLbl=1;backgroundOutline=1;darkOpacity=0.05;darkOpacity2=0.1;size=5;direction=east;flipH=1;fillColor=#f5f5f5;strokeColor=#666666;shadow=1;fontSize=4;gradientColor=#b3b3b3;" vertex="1" parent="1">
          <mxGeometry x="160" y="110" width="30" height="30" as="geometry" />
        </mxCell>
        <mxCell id="N0H3jAODRCFz-ruV89ya-26" value="" style="group" vertex="1" connectable="0" parent="1">
          <mxGeometry x="655" y="450" width="165" height="20" as="geometry" />
        </mxCell>
        <mxCell id="4f-DMQIj-ya-iA7LCkDa-23" value="" style="shape=cube;whiteSpace=wrap;html=1;boundedLbl=1;backgroundOutline=1;darkOpacity=0.05;darkOpacity2=0.1;size=7;direction=east;flipH=1;fillColor=#ffe6cc;strokeColor=#d79b00;" parent="N0H3jAODRCFz-ruV89ya-26" vertex="1">
          <mxGeometry width="12.5" height="20" as="geometry" />
        </mxCell>
        <mxCell id="4f-DMQIj-ya-iA7LCkDa-50" value="Convolutional" style="text;html=1;strokeColor=none;fillColor=none;align=left;verticalAlign=middle;whiteSpace=wrap;rounded=0;fontStyle=1" parent="N0H3jAODRCFz-ruV89ya-26" vertex="1">
          <mxGeometry x="16" width="149" height="20" as="geometry" />
        </mxCell>
        <mxCell id="N0H3jAODRCFz-ruV89ya-28" value="" style="group" vertex="1" connectable="0" parent="1">
          <mxGeometry x="655" y="476.12" width="165" height="20" as="geometry" />
        </mxCell>
        <mxCell id="N0H3jAODRCFz-ruV89ya-29" value="" style="shape=cube;whiteSpace=wrap;html=1;boundedLbl=1;backgroundOutline=1;darkOpacity=0.05;darkOpacity2=0.1;size=7;direction=east;flipH=1;fillColor=#f8cecc;strokeColor=#b85450;" vertex="1" parent="N0H3jAODRCFz-ruV89ya-28">
          <mxGeometry width="12.5" height="20" as="geometry" />
        </mxCell>
        <mxCell id="N0H3jAODRCFz-ruV89ya-30" value="Batch Normalization" style="text;html=1;strokeColor=none;fillColor=none;align=left;verticalAlign=middle;whiteSpace=wrap;rounded=0;fontStyle=1" vertex="1" parent="N0H3jAODRCFz-ruV89ya-28">
          <mxGeometry x="16" width="149" height="20" as="geometry" />
        </mxCell>
        <mxCell id="N0H3jAODRCFz-ruV89ya-31" value="" style="group" vertex="1" connectable="0" parent="1">
          <mxGeometry x="655" y="501.12" width="165" height="20" as="geometry" />
        </mxCell>
        <mxCell id="N0H3jAODRCFz-ruV89ya-32" value="" style="shape=cube;whiteSpace=wrap;html=1;boundedLbl=1;backgroundOutline=1;darkOpacity=0.05;darkOpacity2=0.1;size=7;direction=east;flipH=1;fillColor=#dae8fc;strokeColor=#6c8ebf;" vertex="1" parent="N0H3jAODRCFz-ruV89ya-31">
          <mxGeometry width="12.5" height="20" as="geometry" />
        </mxCell>
        <mxCell id="N0H3jAODRCFz-ruV89ya-33" value="&lt;div&gt;Down Sampling&lt;/div&gt;" style="text;html=1;strokeColor=none;fillColor=none;align=left;verticalAlign=middle;whiteSpace=wrap;rounded=0;fontStyle=1" vertex="1" parent="N0H3jAODRCFz-ruV89ya-31">
          <mxGeometry x="16" width="149" height="20" as="geometry" />
        </mxCell>
        <mxCell id="N0H3jAODRCFz-ruV89ya-35" value="" style="group" vertex="1" connectable="0" parent="1">
          <mxGeometry x="655" y="526.12" width="165" height="20" as="geometry" />
        </mxCell>
        <mxCell id="N0H3jAODRCFz-ruV89ya-36" value="" style="shape=cube;whiteSpace=wrap;html=1;boundedLbl=1;backgroundOutline=1;darkOpacity=0.05;darkOpacity2=0.1;size=7;direction=east;flipH=1;fillColor=#d5e8d4;strokeColor=#82b366;" vertex="1" parent="N0H3jAODRCFz-ruV89ya-35">
          <mxGeometry width="12.5" height="20" as="geometry" />
        </mxCell>
        <mxCell id="N0H3jAODRCFz-ruV89ya-37" value="Up Sampling" style="text;html=1;strokeColor=none;fillColor=none;align=left;verticalAlign=middle;whiteSpace=wrap;rounded=0;fontStyle=1" vertex="1" parent="N0H3jAODRCFz-ruV89ya-35">
          <mxGeometry x="16" width="149" height="20" as="geometry" />
        </mxCell>
        <mxCell id="N0H3jAODRCFz-ruV89ya-38" value="" style="endArrow=none;dashed=1;html=1;rounded=0;" edge="1" parent="1" source="N0H3jAODRCFz-ruV89ya-4" target="N0H3jAODRCFz-ruV89ya-6">
          <mxGeometry width="50" height="50" relative="1" as="geometry">
            <mxPoint x="185" y="115" as="sourcePoint" />
            <mxPoint x="235" y="65" as="targetPoint" />
          </mxGeometry>
        </mxCell>
        <mxCell id="N0H3jAODRCFz-ruV89ya-39" value="" style="endArrow=none;dashed=1;html=1;rounded=0;" edge="1" parent="1" source="N0H3jAODRCFz-ruV89ya-4" target="N0H3jAODRCFz-ruV89ya-1">
          <mxGeometry width="50" height="50" relative="1" as="geometry">
            <mxPoint x="105" y="65" as="sourcePoint" />
            <mxPoint x="125" y="65" as="targetPoint" />
          </mxGeometry>
        </mxCell>
        <mxCell id="N0H3jAODRCFz-ruV89ya-40" value="" style="endArrow=none;dashed=1;html=1;rounded=0;" edge="1" parent="1" source="N0H3jAODRCFz-ruV89ya-6" target="N0H3jAODRCFz-ruV89ya-2">
          <mxGeometry width="50" height="50" relative="1" as="geometry">
            <mxPoint x="95" y="75" as="sourcePoint" />
            <mxPoint x="95" y="95" as="targetPoint" />
          </mxGeometry>
        </mxCell>
        <mxCell id="N0H3jAODRCFz-ruV89ya-41" value="" style="endArrow=none;dashed=1;html=1;rounded=0;" edge="1" parent="1" source="N0H3jAODRCFz-ruV89ya-1" target="N0H3jAODRCFz-ruV89ya-2">
          <mxGeometry width="50" height="50" relative="1" as="geometry">
            <mxPoint x="135" y="75" as="sourcePoint" />
            <mxPoint x="135" y="95" as="targetPoint" />
          </mxGeometry>
        </mxCell>
        <mxCell id="N0H3jAODRCFz-ruV89ya-42" value="" style="endArrow=none;dashed=1;html=1;rounded=0;" edge="1" parent="1" source="N0H3jAODRCFz-ruV89ya-4" target="N0H3jAODRCFz-ruV89ya-2">
          <mxGeometry width="50" height="50" relative="1" as="geometry">
            <mxPoint x="105" y="105" as="sourcePoint" />
            <mxPoint x="125" y="105" as="targetPoint" />
          </mxGeometry>
        </mxCell>
        <mxCell id="N0H3jAODRCFz-ruV89ya-43" value="" style="shape=cube;whiteSpace=wrap;html=1;boundedLbl=1;backgroundOutline=1;darkOpacity=0.05;darkOpacity2=0.1;size=70;direction=east;flipH=1;fillColor=#ffe6cc;strokeColor=#d79b00;" vertex="1" parent="1">
          <mxGeometry x="250" y="2.5" width="75" height="155" as="geometry" />
        </mxCell>
        <mxCell id="N0H3jAODRCFz-ruV89ya-44" value="" style="shape=cube;whiteSpace=wrap;html=1;boundedLbl=1;backgroundOutline=1;darkOpacity=0.05;darkOpacity2=0.1;size=70;direction=east;flipH=1;fillColor=#ffe6cc;strokeColor=#d79b00;" vertex="1" parent="1">
          <mxGeometry x="260" y="2.5" width="75" height="155" as="geometry" />
        </mxCell>
        <mxCell id="N0H3jAODRCFz-ruV89ya-45" value="" style="shape=cube;whiteSpace=wrap;html=1;boundedLbl=1;backgroundOutline=1;darkOpacity=0.05;darkOpacity2=0.1;size=70;direction=east;flipH=1;fillColor=#f8cecc;strokeColor=#b85450;" vertex="1" parent="1">
          <mxGeometry x="270" y="2.5" width="75" height="155" as="geometry" />
        </mxCell>
        <mxCell id="N0H3jAODRCFz-ruV89ya-46" value="" style="shape=cube;whiteSpace=wrap;html=1;boundedLbl=1;backgroundOutline=1;darkOpacity=0.05;darkOpacity2=0.1;size=30;direction=east;flipH=1;fillColor=#dae8fc;strokeColor=#6c8ebf;" vertex="1" parent="1">
          <mxGeometry x="300" y="40" width="35" height="80" as="geometry" />
        </mxCell>
        <mxCell id="N0H3jAODRCFz-ruV89ya-47" value="" style="shape=cube;whiteSpace=wrap;html=1;boundedLbl=1;backgroundOutline=1;darkOpacity=0.05;darkOpacity2=0.1;size=30;direction=east;flipH=1;fillColor=#ffe6cc;strokeColor=#d79b00;" vertex="1" parent="1">
          <mxGeometry x="310" y="40" width="35" height="80" as="geometry" />
        </mxCell>
        <mxCell id="N0H3jAODRCFz-ruV89ya-48" value="" style="shape=cube;whiteSpace=wrap;html=1;boundedLbl=1;backgroundOutline=1;darkOpacity=0.05;darkOpacity2=0.1;size=30;direction=east;flipH=1;fillColor=#f8cecc;strokeColor=#b85450;" vertex="1" parent="1">
          <mxGeometry x="320" y="40" width="35" height="80" as="geometry" />
        </mxCell>
        <mxCell id="N0H3jAODRCFz-ruV89ya-49" value="" style="shape=cube;whiteSpace=wrap;html=1;boundedLbl=1;backgroundOutline=1;darkOpacity=0.05;darkOpacity2=0.1;size=30;direction=east;flipH=1;fillColor=#dae8fc;strokeColor=#6c8ebf;" vertex="1" parent="1">
          <mxGeometry x="330" y="40" width="35" height="80" as="geometry" />
        </mxCell>
        <mxCell id="N0H3jAODRCFz-ruV89ya-50" value="" style="shape=cube;whiteSpace=wrap;html=1;boundedLbl=1;backgroundOutline=1;darkOpacity=0.05;darkOpacity2=0.1;size=30;direction=east;flipH=1;fillColor=#ffe6cc;strokeColor=#d79b00;" vertex="1" parent="1">
          <mxGeometry x="340" y="40" width="35" height="80" as="geometry" />
        </mxCell>
        <mxCell id="N0H3jAODRCFz-ruV89ya-51" value="" style="shape=cube;whiteSpace=wrap;html=1;boundedLbl=1;backgroundOutline=1;darkOpacity=0.05;darkOpacity2=0.1;size=30;direction=east;flipH=1;fillColor=#f8cecc;strokeColor=#b85450;" vertex="1" parent="1">
          <mxGeometry x="350" y="40" width="35" height="80" as="geometry" />
        </mxCell>
        <mxCell id="N0H3jAODRCFz-ruV89ya-54" value="" style="endArrow=none;dashed=1;html=1;rounded=0;exitX=0;exitY=0;exitDx=0;exitDy=0;exitPerimeter=0;entryX=0;entryY=0;entryDx=0;entryDy=0;entryPerimeter=0;fillColor=#eeeeee;strokeColor=#36393d;" edge="1" parent="1" source="N0H3jAODRCFz-ruV89ya-58" target="N0H3jAODRCFz-ruV89ya-57">
          <mxGeometry width="50" height="50" relative="1" as="geometry">
            <mxPoint x="475" y="60" as="sourcePoint" />
            <mxPoint x="525" y="10" as="targetPoint" />
          </mxGeometry>
        </mxCell>
        <mxCell id="N0H3jAODRCFz-ruV89ya-57" value="Features" style="shape=cube;whiteSpace=wrap;html=1;boundedLbl=1;backgroundOutline=1;darkOpacity=0.05;darkOpacity2=0.1;size=25;direction=east;flipH=1;shadow=1;fontSize=4;fillColor=#647687;fontColor=#ffffff;strokeColor=#314354;" vertex="1" parent="1">
          <mxGeometry x="495" y="10" width="50" height="50" as="geometry" />
        </mxCell>
        <mxCell id="N0H3jAODRCFz-ruV89ya-58" value="Features" style="shape=cube;whiteSpace=wrap;html=1;boundedLbl=1;backgroundOutline=1;darkOpacity=0.05;darkOpacity2=0.1;size=25;direction=east;flipH=1;shadow=1;fontSize=4;" vertex="1" parent="1">
          <mxGeometry x="465" y="40" width="50" height="50" as="geometry" />
        </mxCell>
        <mxCell id="N0H3jAODRCFz-ruV89ya-59" value="Features" style="shape=cube;whiteSpace=wrap;html=1;boundedLbl=1;backgroundOutline=1;darkOpacity=0.05;darkOpacity2=0.1;size=25;direction=east;flipH=1;shadow=1;fontSize=4;" vertex="1" parent="1">
          <mxGeometry x="405" y="100" width="50" height="50" as="geometry" />
        </mxCell>
        <mxCell id="N0H3jAODRCFz-ruV89ya-60" value="" style="endArrow=none;dashed=1;html=1;rounded=0;exitX=0;exitY=0;exitDx=0;exitDy=0;exitPerimeter=0;entryX=0;entryY=0;entryDx=0;entryDy=0;entryPerimeter=0;fillColor=#eeeeee;strokeColor=#36393d;" edge="1" parent="1" source="N0H3jAODRCFz-ruV89ya-59" target="N0H3jAODRCFz-ruV89ya-58">
          <mxGeometry width="50" height="50" relative="1" as="geometry">
            <mxPoint x="480" y="70" as="sourcePoint" />
            <mxPoint x="545" y="8" as="targetPoint" />
          </mxGeometry>
        </mxCell>
        <mxCell id="N0H3jAODRCFz-ruV89ya-61" value="Features" style="shape=cube;whiteSpace=wrap;html=1;boundedLbl=1;backgroundOutline=1;darkOpacity=0.05;darkOpacity2=0.1;size=25;direction=east;flipH=1;fillColor=#f5f5f5;strokeColor=#666666;shadow=1;fontSize=4;gradientColor=#b3b3b3;" vertex="1" parent="1">
          <mxGeometry x="375" y="130" width="50" height="50" as="geometry" />
        </mxCell>
        <mxCell id="N0H3jAODRCFz-ruV89ya-66" value="" style="shape=cube;whiteSpace=wrap;html=1;boundedLbl=1;backgroundOutline=1;darkOpacity=0.05;darkOpacity2=0.1;size=30;direction=east;flipH=1;fillColor=#ffe6cc;strokeColor=#d79b00;" vertex="1" parent="1">
          <mxGeometry x="575" y="20" width="35" height="80" as="geometry" />
        </mxCell>
        <mxCell id="N0H3jAODRCFz-ruV89ya-62" value="" style="shape=cube;whiteSpace=wrap;html=1;boundedLbl=1;backgroundOutline=1;darkOpacity=0.05;darkOpacity2=0.1;size=30;direction=east;flipH=1;fillColor=#f8cecc;strokeColor=#b85450;" vertex="1" parent="1">
          <mxGeometry x="585" y="20" width="35" height="80" as="geometry" />
        </mxCell>
        <mxCell id="N0H3jAODRCFz-ruV89ya-64" value="" style="shape=cube;whiteSpace=wrap;html=1;boundedLbl=1;backgroundOutline=1;darkOpacity=0.05;darkOpacity2=0.1;size=40;direction=east;flipH=1;fillColor=#d5e8d4;strokeColor=#82b366;" vertex="1" parent="1">
          <mxGeometry x="595" y="5" width="45" height="110" as="geometry" />
        </mxCell>
        <mxCell id="N0H3jAODRCFz-ruV89ya-65" value="" style="shape=cube;whiteSpace=wrap;html=1;boundedLbl=1;backgroundOutline=1;darkOpacity=0.05;darkOpacity2=0.1;size=40;direction=east;flipH=1;fillColor=#ffe6cc;strokeColor=#d79b00;" vertex="1" parent="1">
          <mxGeometry x="605" y="5" width="45" height="110" as="geometry" />
        </mxCell>
        <mxCell id="N0H3jAODRCFz-ruV89ya-67" value="" style="shape=cube;whiteSpace=wrap;html=1;boundedLbl=1;backgroundOutline=1;darkOpacity=0.05;darkOpacity2=0.1;size=40;direction=east;flipH=1;fillColor=#f8cecc;strokeColor=#b85450;" vertex="1" parent="1">
          <mxGeometry x="615" y="5" width="45" height="110" as="geometry" />
        </mxCell>
        <mxCell id="N0H3jAODRCFz-ruV89ya-68" value="" style="shape=cube;whiteSpace=wrap;html=1;boundedLbl=1;backgroundOutline=1;darkOpacity=0.05;darkOpacity2=0.1;size=30;direction=east;flipH=1;fillColor=#ffe6cc;strokeColor=#d79b00;" vertex="1" parent="1">
          <mxGeometry x="575" y="140" width="35" height="80" as="geometry" />
        </mxCell>
        <mxCell id="N0H3jAODRCFz-ruV89ya-69" value="" style="shape=cube;whiteSpace=wrap;html=1;boundedLbl=1;backgroundOutline=1;darkOpacity=0.05;darkOpacity2=0.1;size=30;direction=east;flipH=1;fillColor=#f8cecc;strokeColor=#b85450;" vertex="1" parent="1">
          <mxGeometry x="585" y="140" width="35" height="80" as="geometry" />
        </mxCell>
        <mxCell id="N0H3jAODRCFz-ruV89ya-70" value="" style="shape=cube;whiteSpace=wrap;html=1;boundedLbl=1;backgroundOutline=1;darkOpacity=0.05;darkOpacity2=0.1;size=40;direction=east;flipH=1;fillColor=#d5e8d4;strokeColor=#82b366;" vertex="1" parent="1">
          <mxGeometry x="595" y="125" width="45" height="110" as="geometry" />
        </mxCell>
        <mxCell id="N0H3jAODRCFz-ruV89ya-71" value="" style="shape=cube;whiteSpace=wrap;html=1;boundedLbl=1;backgroundOutline=1;darkOpacity=0.05;darkOpacity2=0.1;size=40;direction=east;flipH=1;fillColor=#ffe6cc;strokeColor=#d79b00;" vertex="1" parent="1">
          <mxGeometry x="605" y="125" width="45" height="110" as="geometry" />
        </mxCell>
        <mxCell id="N0H3jAODRCFz-ruV89ya-72" value="" style="shape=cube;whiteSpace=wrap;html=1;boundedLbl=1;backgroundOutline=1;darkOpacity=0.05;darkOpacity2=0.1;size=40;direction=east;flipH=1;fillColor=#f8cecc;strokeColor=#b85450;" vertex="1" parent="1">
          <mxGeometry x="615" y="125" width="45" height="110" as="geometry" />
        </mxCell>
        <mxCell id="N0H3jAODRCFz-ruV89ya-74" value="&lt;div style=&quot;font-size: 8px;&quot;&gt;Keypointness&lt;/div&gt;&lt;div style=&quot;font-size: 8px;&quot;&gt;Score&lt;br style=&quot;font-size: 8px;&quot;&gt;&lt;/div&gt;" style="shape=cube;whiteSpace=wrap;html=1;boundedLbl=1;backgroundOutline=1;darkOpacity=0.05;darkOpacity2=0.1;size=5;direction=east;flipH=1;shadow=1;fillColor=#eeeeee;strokeColor=#36393d;fontSize=8;" vertex="1" parent="1">
          <mxGeometry x="760" y="25" width="60" height="60" as="geometry" />
        </mxCell>
        <mxCell id="N0H3jAODRCFz-ruV89ya-75" value="Descriptors" style="shape=cube;whiteSpace=wrap;html=1;boundedLbl=1;backgroundOutline=1;darkOpacity=0.05;darkOpacity2=0.1;size=5;direction=east;flipH=1;shadow=1;fillColor=#eeeeee;strokeColor=#36393d;fontSize=8;" vertex="1" parent="1">
          <mxGeometry x="760" y="145" width="60" height="60" as="geometry" />
        </mxCell>
        <mxCell id="N0H3jAODRCFz-ruV89ya-77" value="" style="group" vertex="1" connectable="0" parent="1">
          <mxGeometry x="655" y="550" width="165" height="20" as="geometry" />
        </mxCell>
        <mxCell id="N0H3jAODRCFz-ruV89ya-78" value="" style="shape=cube;whiteSpace=wrap;html=1;boundedLbl=1;backgroundOutline=1;darkOpacity=0.05;darkOpacity2=0.1;size=7;direction=east;flipH=1;fillColor=#e1d5e7;strokeColor=#9673a6;" vertex="1" parent="N0H3jAODRCFz-ruV89ya-77">
          <mxGeometry width="12.5" height="20" as="geometry" />
        </mxCell>
        <mxCell id="N0H3jAODRCFz-ruV89ya-79" value="Softmax" style="text;html=1;strokeColor=none;fillColor=none;align=left;verticalAlign=middle;whiteSpace=wrap;rounded=0;fontStyle=1" vertex="1" parent="N0H3jAODRCFz-ruV89ya-77">
          <mxGeometry x="16" width="149" height="20" as="geometry" />
        </mxCell>
        <mxCell id="N0H3jAODRCFz-ruV89ya-80" value="" style="shape=cube;whiteSpace=wrap;html=1;boundedLbl=1;backgroundOutline=1;darkOpacity=0.05;darkOpacity2=0.1;size=40;direction=east;flipH=1;fillColor=#e1d5e7;strokeColor=#9673a6;" vertex="1" parent="1">
          <mxGeometry x="625" y="5" width="45" height="110" as="geometry" />
        </mxCell>
        <mxCell id="N0H3jAODRCFz-ruV89ya-82" value="" style="endArrow=none;dashed=1;html=1;rounded=0;exitX=0;exitY=0;exitDx=0;exitDy=0;exitPerimeter=0;entryX=0;entryY=0;entryDx=0;entryDy=0;entryPerimeter=0;fillColor=#eeeeee;strokeColor=#36393d;" edge="1" parent="1" target="N0H3jAODRCFz-ruV89ya-83">
          <mxGeometry width="50" height="50" relative="1" as="geometry">
            <mxPoint x="715" y="55" as="sourcePoint" />
            <mxPoint x="730" y="25" as="targetPoint" />
          </mxGeometry>
        </mxCell>
        <mxCell id="N0H3jAODRCFz-ruV89ya-93" value="Descriptors" style="shape=cube;whiteSpace=wrap;html=1;boundedLbl=1;backgroundOutline=1;darkOpacity=0.05;darkOpacity2=0.1;size=5;direction=east;flipH=1;shadow=1;fontSize=4;fillColor=#647687;fontColor=#ffffff;strokeColor=#314354;" vertex="1" parent="1">
          <mxGeometry x="720" y="130" width="30" height="30" as="geometry" />
        </mxCell>
        <mxCell id="N0H3jAODRCFz-ruV89ya-94" value="Descriptors" style="shape=cube;whiteSpace=wrap;html=1;boundedLbl=1;backgroundOutline=1;darkOpacity=0.05;darkOpacity2=0.1;size=5;direction=east;flipH=1;shadow=1;fontSize=4;" vertex="1" parent="1">
          <mxGeometry x="710" y="140" width="30" height="30" as="geometry" />
        </mxCell>
        <mxCell id="N0H3jAODRCFz-ruV89ya-95" value="" style="endArrow=none;dashed=1;html=1;rounded=0;exitX=0;exitY=0;exitDx=0;exitDy=0;exitPerimeter=0;entryX=1;entryY=1;entryDx=0;entryDy=0;entryPerimeter=0;" edge="1" parent="1" source="N0H3jAODRCFz-ruV89ya-97" target="N0H3jAODRCFz-ruV89ya-93">
          <mxGeometry width="50" height="50" relative="1" as="geometry">
            <mxPoint x="670" y="200" as="sourcePoint" />
            <mxPoint x="720" y="150" as="targetPoint" />
          </mxGeometry>
        </mxCell>
        <mxCell id="N0H3jAODRCFz-ruV89ya-96" value="Descriptors" style="shape=cube;whiteSpace=wrap;html=1;boundedLbl=1;backgroundOutline=1;darkOpacity=0.05;darkOpacity2=0.1;size=5;direction=east;flipH=1;shadow=1;fontSize=4;" vertex="1" parent="1">
          <mxGeometry x="660" y="190" width="30" height="30" as="geometry" />
        </mxCell>
        <mxCell id="N0H3jAODRCFz-ruV89ya-97" value="Descriptors" style="shape=cube;whiteSpace=wrap;html=1;boundedLbl=1;backgroundOutline=1;darkOpacity=0.05;darkOpacity2=0.1;size=5;direction=east;flipH=1;fillColor=#f5f5f5;strokeColor=#666666;shadow=1;fontSize=4;gradientColor=#b3b3b3;" vertex="1" parent="1">
          <mxGeometry x="650" y="200" width="30" height="30" as="geometry" />
        </mxCell>
        <mxCell id="N0H3jAODRCFz-ruV89ya-98" value="&lt;div&gt;Keypointness&lt;/div&gt;&lt;div&gt;Score&lt;br&gt;&lt;/div&gt;" style="shape=cube;whiteSpace=wrap;html=1;boundedLbl=1;backgroundOutline=1;darkOpacity=0.05;darkOpacity2=0.1;size=5;direction=east;flipH=1;shadow=1;fontSize=4;fillColor=#647687;fontColor=#ffffff;strokeColor=#314354;" vertex="1" parent="1">
          <mxGeometry x="725" y="15" width="30" height="30" as="geometry" />
        </mxCell>
        <mxCell id="N0H3jAODRCFz-ruV89ya-99" value="&lt;div&gt;Keypointness&lt;/div&gt;&lt;div&gt;Score&lt;br&gt;&lt;/div&gt;" style="shape=cube;whiteSpace=wrap;html=1;boundedLbl=1;backgroundOutline=1;darkOpacity=0.05;darkOpacity2=0.1;size=5;direction=east;flipH=1;shadow=1;fontSize=4;" vertex="1" parent="1">
          <mxGeometry x="715" y="25" width="30" height="30" as="geometry" />
        </mxCell>
        <mxCell id="N0H3jAODRCFz-ruV89ya-100" value="" style="endArrow=none;dashed=1;html=1;rounded=0;exitX=0;exitY=0;exitDx=0;exitDy=0;exitPerimeter=0;entryX=1;entryY=1;entryDx=0;entryDy=0;entryPerimeter=0;" edge="1" parent="1" source="N0H3jAODRCFz-ruV89ya-102" target="N0H3jAODRCFz-ruV89ya-98">
          <mxGeometry width="50" height="50" relative="1" as="geometry">
            <mxPoint x="675" y="85" as="sourcePoint" />
            <mxPoint x="725" y="35" as="targetPoint" />
          </mxGeometry>
        </mxCell>
        <mxCell id="N0H3jAODRCFz-ruV89ya-101" value="&lt;div&gt;Keypointness&lt;/div&gt;&lt;div&gt;Score&lt;br&gt;&lt;/div&gt;" style="shape=cube;whiteSpace=wrap;html=1;boundedLbl=1;backgroundOutline=1;darkOpacity=0.05;darkOpacity2=0.1;size=5;direction=east;flipH=1;shadow=1;fontSize=4;" vertex="1" parent="1">
          <mxGeometry x="665" y="75" width="30" height="30" as="geometry" />
        </mxCell>
        <mxCell id="N0H3jAODRCFz-ruV89ya-102" value="&lt;div&gt;Keypointness&lt;/div&gt;&lt;div&gt;Score&lt;br&gt;&lt;/div&gt;" style="shape=cube;whiteSpace=wrap;html=1;boundedLbl=1;backgroundOutline=1;darkOpacity=0.05;darkOpacity2=0.1;size=5;direction=east;flipH=1;fillColor=#f5f5f5;strokeColor=#666666;shadow=1;fontSize=4;gradientColor=#b3b3b3;" vertex="1" parent="1">
          <mxGeometry x="655" y="85" width="30" height="30" as="geometry" />
        </mxCell>
      </root>
    </mxGraphModel>
  </diagram>
</mxfile>
